HIERARCHY
ROOT Hips
{
	OFFSET 0.000000 0.000000 0.000000
	CHANNELS 6 Xposition Yposition Zposition Zrotation Yrotation Xrotation 
	JOINT LHipJoint
	{
		OFFSET 0.000000 0.000000 0.000000
		CHANNELS 3 Zrotation Yrotation Xrotation
		JOINT LeftUpLeg
		{
			OFFSET 1.363060 -1.794630 0.839290
			CHANNELS 3 Zrotation Yrotation Xrotation
			JOINT LeftLeg
			{
				OFFSET 2.448110 -6.726130 0.000000
				CHANNELS 3 Zrotation Yrotation Xrotation
				JOINT LeftFoot
				{
					OFFSET 2.562200 -7.039590 0.000000
					CHANNELS 3 Zrotation Yrotation Xrotation
					JOINT LeftToeBase
					{
						OFFSET 0.157640 -0.433110 2.322550
						CHANNELS 3 Zrotation Yrotation Xrotation
						End Site
						{
							OFFSET 0.000000 0.000000 0.000000
						}
					}
				}
			}
		}
	}
	JOINT RHipJoint
	{
		OFFSET 0.000000 0.000000 0.000000
		CHANNELS 3 Zrotation Yrotation Xrotation
		JOINT RightUpLeg
		{
			OFFSET -1.305520 -1.794630 0.839290
			CHANNELS 3 Zrotation Yrotation Xrotation
			JOINT RightLeg
			{
				OFFSET -2.542530 -6.985550 0.000000
				CHANNELS 3 Zrotation Yrotation Xrotation
				JOINT RightFoot
				{
					OFFSET -2.568260 -7.056230 0.000000
					CHANNELS 3 Zrotation Yrotation Xrotation
					JOINT RightToeBase
					{
						OFFSET -0.164730 -0.452590 2.363150
						CHANNELS 3 Zrotation Yrotation Xrotation
						End Site
						{
							OFFSET 0.000000 0.000000 0.000000
						}
					}
				}
			}
		}
	}
	JOINT LowerBack
	{
		OFFSET 0.000000 0.000000 0.000000
		CHANNELS 3 Zrotation Yrotation Xrotation
		JOINT Spine
		{
			OFFSET 0.028270 2.035590 -0.193380
			CHANNELS 3 Zrotation Yrotation Xrotation
			JOINT Spine1
			{
				OFFSET 0.056720 2.048850 -0.042750
				CHANNELS 3 Zrotation Yrotation Xrotation
				JOINT Neck
				{
					OFFSET 0.000000 0.000000 0.000000
					CHANNELS 3 Zrotation Yrotation Xrotation
					JOINT Neck1
					{
						OFFSET -0.054170 1.746240 0.172020
						CHANNELS 3 Zrotation Yrotation Xrotation
						JOINT Head
						{
							OFFSET 0.104070 1.761360 -0.123970
							CHANNELS 3 Zrotation Yrotation Xrotation
							End Site
							{
								OFFSET 0.000000 0.000000 0.000000
							}
						}
					}
				}
				JOINT LeftShoulder
				{
					OFFSET 0.000000 0.000000 0.000000
					CHANNELS 3 Zrotation Yrotation Xrotation
					JOINT LeftArm
					{
						OFFSET 3.362410 1.200890 -0.311210
						CHANNELS 3 Zrotation Yrotation Xrotation
						JOINT LeftForeArm
						{
							OFFSET 4.983000 -0.000000 -0.000000
							CHANNELS 3 Zrotation Yrotation Xrotation
							JOINT LeftHand
							{
								OFFSET 3.483560 -0.000000 -0.000000
								CHANNELS 3 Zrotation Yrotation Xrotation
								JOINT LeftFingerBase
								{
									OFFSET 0.000000 0.000000 0.000000
									CHANNELS 3 Zrotation Yrotation Xrotation
									JOINT LeftHandIndex1
									{
										OFFSET 0.715260 -0.000000 -0.000000
										CHANNELS 3 Zrotation Yrotation Xrotation
										End Site
										{
											OFFSET 0.000000 0.000000 0.000000
										}
									}
								}
								JOINT LThumb
								{
									OFFSET 0.000000 0.000000 0.000000
									CHANNELS 3 Zrotation Yrotation Xrotation
									End Site
									{
										OFFSET 0.000000 0.000000 0.000000
									}
								}
							}
						}
					}
				}
				JOINT RightShoulder
				{
					OFFSET 0.000000 0.000000 0.000000
					CHANNELS 3 Zrotation Yrotation Xrotation
					JOINT RightArm
					{
						OFFSET -3.136600 1.374050 -0.404650
						CHANNELS 3 Zrotation Yrotation Xrotation
						JOINT RightForeArm
						{
							OFFSET -5.241900 -0.000000 -0.000000
							CHANNELS 3 Zrotation Yrotation Xrotation
							JOINT RightHand
							{
								OFFSET -3.444170 -0.000000 -0.000000
								CHANNELS 3 Zrotation Yrotation Xrotation
								JOINT RightFingerBase
								{
									OFFSET 0.000000 0.000000 0.000000
									CHANNELS 3 Zrotation Yrotation Xrotation
									JOINT RightHandIndex1
									{
										OFFSET -0.622530 -0.000000 -0.000000
										CHANNELS 3 Zrotation Yrotation Xrotation
										End Site
										{
											OFFSET 0.000000 0.000000 0.000000
										}
									}
								}
								JOINT RThumb
								{
									OFFSET 0.000000 0.000000 0.000000
									CHANNELS 3 Zrotation Yrotation Xrotation
									End Site
									{
										OFFSET 0.000000 0.000000 0.000000
									}
								}
							}
						}
					}
				}
			}
		}
	}
}
MOTION
Frames: 10
Frame Time: 0.008333
23.488635 10.547286 1.314952 131.714890 89.391456 167.317479 -0.903835 33.906115 17.769061 1.089933 -68.069560 -135.004630 17.528970 1.280286 117.438991 -5.044253 -25.577904 -57.363508 5.518200 13.944700 43.016200 -34.185549 -22.690500 31.144785 55.188934 74.725194 -49.723755 -15.118938 -13.288514 91.474365 -6.714531 9.019734 -80.044175 -0.082300 1.850400 -5.092500 8.719346 2.852714 7.897308 -2.550238 4.697232 106.329377 -6.626327 1.745943 -47.688804 -7.850668 -6.939510 -46.486661 9.525400 -9.342783 28.286189 0.623700 -3.247700 6.449500 9.979297 24.307364 -6.938799 -83.538578 -15.738273 -38.028684 -112.424200 -78.623649 165.346601 4.846588 24.031265 -8.287921 40.032173 70.203508 25.726800 -7.125000 0.000000 0.000000 -65.330200 83.632000 -59.381100 -8.446514 -23.254153 -7.991536 109.312145 45.907628 -8.480695 -23.181732 74.122310 2.839919 -10.211384 9.507691 -0.796013 -80.506683 48.656027 -62.515500 7.125000 0.000000 0.000000 -17.013700 37.381000 -24.354900 
23.491939 10.552931 1.318531 130.876779 88.989456 166.258513 -0.503767 34.202571 17.866922 -0.594018 -68.688772 -133.300208 17.449112 1.455357 117.160861 -5.203765 -26.092834 -57.346092 5.506700 13.932600 42.968100 -34.467751 -22.561545 31.224334 55.442072 74.810564 -49.248958 -15.201884 -13.222692 91.297682 -6.768340 8.481449 -80.176314 -0.080500 1.829800 -5.035600 8.922887 3.171818 7.805126 -2.084058 4.173766 106.355043 -6.570991 1.521200 -47.660326 -8.376203 -7.320814 -46.427435 11.139921 -10.040403 29.205630 0.710000 -3.370000 6.541400 10.132011 24.010545 -6.417899 -84.000579 -14.939188 -39.057205 -112.529310 -79.571522 166.034210 4.761203 24.187869 -9.239338 40.546989 69.999338 25.988100 -7.125000 0.000000 0.000000 -62.003100 83.759300 -56.328100 -8.426318 -22.824244 -8.332312 109.620309 46.543462 -7.634943 -22.243608 74.187425 3.080901 -10.371841 9.582122 -0.608315 -81.249537 48.877390 -63.395700 7.125000 0.000000 0.000000 -17.273900 37.991700 -24.764200 
23.488497 10.551347 1.325690 130.728011 88.506854 166.114597 -0.450150 34.312310 17.867393 -1.513211 -69.097490 -132.479862 17.429341 1.580242 116.938420 -5.399491 -26.482120 -57.127186 5.643500 14.073800 43.533700 -34.720526 -22.645806 31.397292 55.332613 75.015775 -49.218008 -15.441896 -13.129236 91.049921 -6.926318 7.340061 -80.319118 -0.094100 1.978600 -5.446500 8.963223 3.710482 7.426472 -1.171522 3.322329 106.399943 -6.544012 1.246906 -47.624131 -8.680265 -7.683804 -46.554961 11.695587 -10.564095 30.616006 0.726500 -3.494400 6.677400 10.099606 23.699112 -5.911432 -84.558514 -14.216132 -39.825275 -112.508577 -80.546438 166.578254 4.647631 24.301889 -9.934090 40.596662 69.991921 25.967700 -7.125000 0.000000 0.000000 -59.541300 83.733400 -53.967900 -8.572662 -22.409636 -8.606042 109.784599 47.085415 -6.765105 -21.572865 74.395114 3.132940 -10.506908 9.556402 -0.763833 -81.578318 48.847992 -63.693100 7.125000 0.000000 0.000000 -17.442500 38.145400 -25.021000 
23.480099 10.546873 1.335534 132.121843 87.772047 167.630567 -0.716565 34.224525 17.829054 -1.768135 -69.473396 -132.298512 17.430735 1.601876 116.747677 -5.605309 -26.763704 -56.788051 5.991100 14.419700 44.946100 -35.085424 -22.944195 31.731635 55.119871 75.238550 -49.443364 -15.623481 -13.040378 90.760717 -7.053116 6.504238 -80.372203 -0.108700 2.125400 -5.852500 8.706338 4.306274 6.701415 0.508141 1.816021 106.536472 -6.766446 0.711356 -47.395190 -9.071811 -7.976379 -46.327434 11.797472 -10.850018 31.142555 0.736400 -3.603700 6.741400 9.923772 23.215182 -5.500772 -85.132915 -13.466155 -40.414175 -112.289893 -81.621635 167.036833 4.499923 24.399339 -10.437362 40.225843 70.183314 25.697900 -7.125000 0.000000 0.000000 -57.908200 83.577500 -52.283100 -8.870979 -22.088470 -8.888018 109.900938 47.536456 -5.810967 -21.335872 74.858038 2.899744 -10.505550 9.444763 -1.145640 -81.212369 48.620651 -63.158100 7.125000 0.000000 0.000000 -17.372300 37.715700 -24.902300 
23.484573 10.554583 1.334984 134.541772 86.943439 169.425198 -0.479793 34.182032 18.089445 -3.317206 -70.029248 -130.351493 17.425433 1.761900 116.568790 -5.513568 -26.783781 -56.957063 5.893300 14.324100 44.551900 -36.190707 -22.570764 31.963254 57.464904 74.778182 -47.255889 -15.534479 -13.221116 90.353103 -7.019476 6.584025 -80.601544 -0.120600 2.238800 -6.166100 8.542303 4.600161 6.840958 2.635184 0.011768 106.642948 -7.216067 -0.064686 -47.210283 -9.098515 -8.136272 -45.902643 10.571696 -10.754386 31.047390 0.658600 -3.718200 6.746100 9.604749 22.616805 -5.164012 -85.711973 -12.706470 -40.767917 -112.019470 -82.817137 167.437475 4.459503 24.449512 -10.723466 39.788061 70.247839 25.323200 -7.125000 0.000000 0.000000 -55.374400 83.343400 -49.694100 -9.357065 -21.954441 -9.089819 109.913903 48.018281 -4.665278 -21.314929 75.345230 2.621392 -10.555843 9.270694 -2.084401 -81.386562 48.776056 -63.634000 7.125000 0.000000 0.000000 -17.315900 38.176000 -24.832600 
23.487671 10.564840 1.337049 136.136186 86.163447 170.604244 -0.224279 34.187086 18.292338 -4.834628 -70.559310 -128.574654 17.385663 1.975693 116.302352 -5.319958 -26.805957 -57.316533 5.664100 14.094800 43.618400 -36.946992 -22.415720 32.207899 58.998287 74.424809 -45.817324 -15.508714 -13.266850 90.055636 -6.979036 6.481725 -80.729577 -0.151600 2.509100 -6.914900 8.358605 4.957384 6.735634 4.667453 -1.674843 106.627749 -7.626571 -0.755621 -46.929598 -9.274050 -8.343856 -45.693401 9.742164 -10.789508 31.432438 0.606300 -3.828400 6.800500 9.319445 22.039796 -4.848626 -86.263640 -12.000132 -41.082484 -111.805669 -84.041520 167.828067 4.426453 24.488511 -10.759383 39.063325 70.498125 24.811000 -7.125000 0.000000 0.000000 -54.055800 83.046100 -48.202200 -9.786074 -21.853076 -9.147953 109.838431 48.515788 -3.172665 -21.394148 75.785673 2.309630 -10.691186 9.007174 -3.629531 -81.585842 48.932622 -64.150400 7.125000 0.000000 0.000000 -17.244800 38.679200 -24.740500 
23.486914 10.574202 1.346204 136.243742 85.563329 170.687398 -0.004996 34.334906 18.365744 -6.089575 -71.018253 -127.292019 17.463779 2.156903 115.958730 -5.504739 -26.948112 -56.868393 6.288700 14.702400 46.129500 -37.095579 -22.642881 32.474057 58.831373 74.466189 -45.911902 -15.513250 -13.120173 89.912035 -6.892246 6.404667 -80.636563 -0.121800 2.250000 -6.197000 8.154224 5.433965 6.302860 6.184901 -2.868206 106.505737 -8.020126 -1.229066 -46.617610 -10.111991 -8.718434 -45.660898 10.996274 -11.389461 32.301339 0.686200 -3.939200 6.890300 9.235828 21.533347 -4.583565 -86.738006 -11.369669 -41.308238 -111.671426 -85.265234 168.215097 4.344442 24.556906 -10.672342 38.169471 70.999004 24.279800 -7.125000 0.000000 0.000000 -54.455400 82.773700 -48.333400 -9.920855 -21.715386 -9.080363 109.743258 48.981743 -1.413516 -21.751110 76.303812 1.841635 -10.800883 8.654032 -5.733845 -81.015258 48.974809 -63.663600 7.125000 0.000000 0.000000 -16.893700 38.476700 -24.211000 
23.483059 10.577300 1.355360 136.315470 84.913013 170.933737 0.107398 34.426249 18.371911 -7.023896 -71.506114 -126.437501 17.391987 2.308151 115.607870 -5.602879 -27.370906 -56.828607 6.349700 14.758900 46.369800 -37.049380 -23.116270 32.816562 57.966952 74.638107 -46.679983 -15.541151 -12.910266 89.848239 -6.801827 6.274457 -80.466727 -0.128300 2.308800 -6.360000 7.745135 6.082043 5.669437 8.076823 -4.335346 106.229184 -8.600543 -1.785242 -46.233440 -11.401457 -9.229538 -45.686391 13.137928 -12.271719 33.319949 0.835100 -4.064200 6.989800 9.100473 21.003698 -4.333998 -87.224928 -10.832553 -41.335195 -111.620310 -86.514745 168.557873 4.458169 24.572926 -10.357797 37.599863 71.213373 23.893000 -7.125000 0.000000 0.000000 -53.673700 82.547800 -47.410400 -10.007118 -21.638310 -8.930453 109.641676 49.444412 0.259917 -22.344511 76.898573 1.329071 -10.832920 8.304824 -7.717555 -80.571526 49.150169 -63.491500 7.125000 0.000000 0.000000 -16.533900 38.559200 -23.677800 
23.482026 10.580741 1.361073 137.061063 84.287257 171.720854 0.169602 34.425396 18.404041 -7.719113 -71.884255 -125.733358 17.352565 2.424801 115.325999 -5.674274 -27.634502 -56.756145 6.371000 14.778500 46.453200 -37.260246 -23.365027 33.120837 58.004020 74.610050 -46.660557 -15.589839 -12.813918 89.697417 -6.794224 5.940310 -80.497544 -0.159300 2.571500 -7.087900 7.310361 6.622589 5.176727 10.199339 -5.961005 105.805384 -9.361784 -2.449804 -45.835015 -12.851947 -9.749125 -45.709094 15.261860 -13.142537 34.389990 0.998600 -4.169300 7.110400 8.976914 20.354258 -4.093065 -87.640203 -10.182116 -41.436881 -111.543101 -87.778227 168.866635 4.735828 24.564529 -10.043724 37.501990 70.993385 23.683900 -7.125000 0.000000 0.000000 -50.744100 82.342700 -44.538400 -10.125481 -21.588918 -8.841315 109.593652 49.862290 1.861857 -22.858259 77.472147 0.835150 -10.843381 7.997948 -9.104657 -80.332864 48.973683 -63.340200 7.125000 0.000000 0.000000 -16.431200 38.492800 -23.523300 
23.482852 10.588383 1.366167 138.000659 83.750028 172.532473 0.320474 34.438086 18.512801 -8.515269 -72.171288 -124.842328 17.327874 2.564927 115.073910 -5.635805 -27.721639 -56.818866 6.300000 14.712900 46.174100 -37.651647 -23.371688 33.352022 58.925279 74.341093 -45.838472 -15.725866 -12.804941 89.462089 -6.822265 5.234552 -80.625067 -0.216400 2.994400 -8.263200 7.006812 6.986106 4.898064 12.155868 -7.360289 105.391548 -10.060807 -3.032986 -45.486496 -13.770964 -10.071445 -45.582680 15.948922 -13.583875 35.096507 1.058200 -4.263800 7.191700 8.834203 19.655727 -3.909622 -88.000374 -9.417399 -41.668688 -111.403115 -89.002832 169.143483 4.955269 24.583222 -9.819922 37.373064 70.815270 23.462300 -7.125000 0.000000 0.000000 -48.143900 82.117800 -41.980000 -10.342401 -21.538952 -8.797508 109.596290 50.256567 3.526051 -23.427779 78.066729 0.307856 -10.822598 7.707421 -10.308942 -80.163632 48.745135 -63.261200 7.125000 0.000000 0.000000 -16.380500 38.457200 -23.447000 
